<svg width="270" height="196" viewBox="0 0 270 196" fill="none" xmlns="https://www.w3.org/2000/svg">
<path d="M270 0H0V196H270V0Z" fill="#E9F8FF"/>
<path d="M77.7268 161.166L66.0929 172.8L68.5421 175.25L80.1761 163.616C79.1555 162.799 78.3391 161.983 77.7268 161.166Z" fill="#183271"/>
<path d="M94.6674 163.411L106.301 175.045L108.751 172.596L97.1167 160.962C96.3003 161.983 95.4838 162.799 94.6674 163.411Z" fill="#183271"/>
<path d="M85.6869 165.861V182.393H88.9525V165.861C88.3402 165.861 87.932 166.065 87.3197 166.065C86.7074 166.065 86.2992 165.861 85.6869 165.861Z" fill="#183271"/>
<path d="M87.3197 146.063C83.0335 146.063 79.5638 149.532 79.5638 153.819C79.5638 158.105 83.0335 161.575 87.3197 161.575C91.6059 161.575 95.0757 158.105 95.0757 153.819C95.0757 149.532 91.6059 146.063 87.3197 146.063Z" fill="#183271"/>
<path d="M106.097 115.243C113.037 118.713 118.956 123.815 123.242 130.347H151C152.633 124.836 155.082 119.937 158.144 115.243H106.097Z" fill="#183271"/>
<path d="M99.3619 153.819C99.3619 154.431 99.3619 155.043 99.1577 155.451H115.69V152.186H99.1577C99.3619 152.798 99.3619 153.206 99.3619 153.819Z" fill="#183271"/>
<path d="M207.741 115.243V128.102L220.804 115.243H207.741Z" fill="#183271"/>
<path d="M212.027 137.286L218.354 130.959L229.988 119.325C228.968 118.1 227.743 116.876 226.519 115.855L208.762 133.612C209.782 134.633 211.007 135.857 212.027 137.286Z" fill="#183271"/>
<path d="M87.3197 115.243C66.0929 115.243 48.7441 132.592 48.7441 153.819C48.7441 175.045 66.0929 192.394 87.3197 192.394C108.546 192.394 125.895 175.045 125.895 153.819C125.895 132.592 108.547 115.243 87.3197 115.243ZM119.976 149.941C120.18 151.165 120.18 152.594 120.18 153.819C120.18 155.043 120.18 156.472 119.976 157.697V157.901C119.16 163.82 116.915 169.33 113.445 174.025C113.445 174.229 113.241 174.229 113.241 174.433C111.608 176.474 109.771 178.311 107.934 179.74C107.798 179.876 107.662 179.944 107.526 179.944C103.036 183.414 97.5249 185.863 91.6059 186.475H91.4017C90.1771 186.679 88.9525 186.679 87.5238 186.679C86.2991 186.679 84.8704 186.679 83.6458 186.475H83.4417C77.5227 185.659 72.0119 183.414 67.5216 179.944C67.3175 179.944 67.3175 179.74 67.1134 179.74C65.0724 178.107 63.2354 176.27 61.8067 174.433C61.6706 174.297 61.6026 174.161 61.6026 174.025C58.1328 169.535 55.6836 164.024 55.0712 157.901V157.697C54.8671 156.472 54.8671 155.247 54.8671 153.819C54.8671 152.594 54.8671 151.165 55.0712 149.941V149.737C55.2754 147.287 55.8876 145.042 56.7041 142.797C56.7041 142.661 56.7721 142.525 56.9082 142.389C58.1328 139.327 59.7656 136.47 61.6026 133.816C61.6026 133.612 61.8067 133.612 61.8067 133.408C63.4396 131.367 65.2765 129.53 67.1134 128.102C67.2495 127.965 67.3856 127.897 67.5216 127.897C72.0119 124.428 77.5227 121.978 83.6458 121.366C84.8705 121.162 86.0951 121.162 87.5238 121.162C88.7484 121.162 90.1771 121.162 91.4017 121.366C97.3207 122.182 102.832 124.428 107.526 127.897C107.73 127.897 107.73 128.102 107.934 128.102C109.975 129.734 111.812 131.571 113.241 133.408C113.377 133.544 113.445 133.68 113.445 133.816C116.915 138.511 119.16 143.818 119.976 149.941Z" fill="#183271"/>
<path d="M207.741 106.875V110.753H219.171C215.701 108.916 211.823 107.691 207.741 106.875Z" fill="#183271"/>
<path d="M102.832 129.938C99.9742 128.102 96.9126 126.877 93.4428 126.061V130.347H102.423L102.832 129.938Z" fill="#183271"/>
<path d="M96.9126 146.675L108.547 135.041L106.097 132.592L94.4633 144.226C95.4839 144.838 96.3003 145.654 96.9126 146.675Z" fill="#183271"/>
<path d="M68.5422 115.243H45.6825V130.347H51.3974C55.6836 123.815 61.6026 118.713 68.5422 115.243Z" fill="#183271"/>
<path d="M43.4374 134.633C42.2127 134.633 41.1922 133.612 41.1922 132.388V127.285H4.04532V132.592H34.6609C35.8855 132.592 36.9061 133.612 36.9061 134.837V140.96H46.0907C46.703 138.715 47.7236 136.47 48.7441 134.429H43.4374V134.633Z" fill="#183271"/>
<path d="M88.9526 141.981V125.448H85.6869V141.981C86.2992 141.981 86.7074 141.776 87.3197 141.776C87.932 141.776 88.5444 141.776 88.9526 141.981Z" fill="#183271"/>
<path d="M63.4395 138.511C62.8272 139.327 62.419 140.348 61.8067 141.368H66.0929L63.4395 138.511Z" fill="#183271"/>
<path d="M81.1966 130.347V126.06C77.7268 126.877 74.6653 128.102 71.8078 129.938L72.216 130.347L81.1966 130.347Z" fill="#183271"/>
<path d="M75.2776 153.819C75.2776 153.206 75.2776 152.594 75.4817 152.186H58.9493V155.451H75.4817C75.2776 155.043 75.2776 154.431 75.2776 153.819Z" fill="#183271"/>
<path d="M73.0324 141.981L77.7268 146.675C78.3392 145.859 79.1556 145.042 80.1761 144.226L68.5422 132.592L66.0929 135.041L73.0324 141.981Z" fill="#183271"/>
<path d="M194.066 115.243H181.208L194.066 128.102V115.243Z" fill="#183271"/>
<path d="M214.272 144.838C214.272 145.654 214.272 146.471 214.068 147.287H239.377C239.377 146.471 239.581 145.654 239.581 144.838C239.581 144.022 239.581 143.205 239.377 142.389H214.068C214.272 143.001 214.272 143.818 214.272 144.838Z" fill="#183271"/>
<path d="M208.353 155.86L226.11 173.617C227.335 172.596 228.56 171.372 229.58 170.147L211.823 152.39C211.007 153.614 209.782 154.839 208.353 155.86Z" fill="#183271"/>
<path d="M201.006 97.0777C174.676 97.0777 153.245 118.509 153.245 144.838C153.245 171.167 174.676 192.598 201.006 192.598C227.335 192.598 248.766 171.167 248.766 144.838C248.766 118.509 227.335 97.0777 201.006 97.0777ZM241.826 131.775C243.051 135.857 243.867 140.144 243.867 144.838C243.867 146.471 243.867 147.9 243.663 149.532C242.847 157.697 239.581 165.044 234.887 171.167C234.887 171.372 234.683 171.576 234.683 171.576C232.846 174.025 230.601 176.066 228.151 178.107C228.015 178.243 227.879 178.311 227.743 178.311C221.62 183.005 214.272 186.271 206.108 187.088C204.475 187.292 203.047 187.292 201.414 187.292C199.781 187.292 198.352 187.292 196.719 187.088C188.555 186.271 181.207 183.005 175.084 178.311C174.88 178.311 174.676 178.107 174.676 178.107C172.227 176.27 170.186 174.025 168.145 171.576C168.009 171.44 167.941 171.303 167.941 171.167C163.246 165.044 159.981 157.697 159.164 149.532C158.96 147.9 158.96 146.471 158.96 144.838C158.96 140.348 159.777 135.857 161.001 131.775V131.571C162.634 126.673 164.879 122.387 168.145 118.305C168.145 118.1 168.349 118.1 168.349 117.896C170.186 115.447 172.431 113.406 174.88 111.365C175.016 111.229 175.152 111.161 175.288 111.161C182.636 105.446 191.617 101.976 201.618 101.976C211.619 101.976 220.804 105.446 227.947 111.161C228.151 111.161 228.151 111.365 228.355 111.365C230.805 113.202 232.846 115.447 234.887 117.896C235.023 118.032 235.091 118.168 235.091 118.305C237.744 122.387 240.194 126.673 241.826 131.775Z" fill="#183271"/>
<path d="M243.867 115.243C246.929 119.733 249.378 124.836 251.011 130.347H263.665V115.243H243.867Z" fill="#183271"/>
<path d="M203.455 131.571V106.262C202.638 106.262 201.822 106.058 201.006 106.058C200.189 106.058 199.373 106.058 198.556 106.262V131.571C199.373 131.367 200.189 131.367 201.006 131.367C201.822 131.367 202.638 131.571 203.455 131.571Z" fill="#183271"/>
<path d="M201.006 135.857C196.107 135.857 192.025 139.94 192.025 144.838C192.025 149.736 196.107 153.819 201.006 153.819C205.904 153.819 209.986 149.736 209.986 144.838C209.986 139.94 205.904 135.857 201.006 135.857Z" fill="#183271"/>
<path d="M225.09 130.347H236.52C235.499 127.693 234.07 125.244 232.438 122.999L225.09 130.347Z" fill="#183271"/>
<path d="M183.657 130.959L189.984 137.286C191.004 135.858 192.229 134.633 193.454 133.816L175.697 116.059C174.472 117.08 173.247 118.305 172.227 119.529L183.657 130.959Z" fill="#183271"/>
<path d="M169.369 122.795C167.737 125.04 166.512 127.693 165.287 130.143H176.717L169.369 122.795Z" fill="#183271"/>
<path d="M198.352 157.901V183.21C199.169 183.21 199.985 183.414 200.802 183.414C201.618 183.414 202.434 183.414 203.251 183.21V157.901C202.434 158.105 201.618 158.105 200.802 158.105C200.189 158.105 199.169 157.901 198.352 157.901Z" fill="#183271"/>
<path d="M194.066 106.875C189.984 107.691 186.106 108.916 182.636 110.753H194.066V106.875Z" fill="#183271"/>
<path d="M189.984 152.186L172.227 169.943C173.247 171.167 174.472 172.392 175.697 173.413L193.454 155.656C192.025 154.839 190.8 153.615 189.984 152.186Z" fill="#183271"/>
<path d="M187.535 144.838C187.535 144.022 187.535 143.205 187.739 142.389H162.43C162.43 143.205 162.226 144.022 162.226 144.838C162.226 145.654 162.226 146.471 162.43 147.287H187.739C187.739 146.471 187.535 145.654 187.535 144.838Z" fill="#183271"/>
<path d="M51 14L51 105" stroke="#183271" stroke-width="4" stroke-miterlimit="10"/>
<path d="M177 106H49" stroke="#183271" stroke-width="4" stroke-miterlimit="10"/>
<path d="M256 106L224 106" stroke="#183271" stroke-width="4" stroke-miterlimit="10"/>
<path d="M60 14.4243C156.698 11.0641 216.159 18.5852 255 98" stroke="#183271" stroke-width="2"/>
<circle cx="2.5" cy="2.5" r="2.5" transform="matrix(1 0 0 -1 82 24)" fill="#183271"/>
<circle cx="2.5" cy="2.5" r="2.5" transform="matrix(1 0 0 -1 135 27)" fill="#183271"/>
<circle cx="2.5" cy="2.5" r="2.5" transform="matrix(1 0 0 -1 137 38)" fill="#183271"/>
<circle cx="2.5" cy="2.5" r="2.5" transform="matrix(1 0 0 -1 152 46)" fill="#183271"/>
<circle cx="2.5" cy="2.5" r="2.5" transform="matrix(1 0 0 -1 111 24)" fill="#183271"/>
<circle cx="2.5" cy="2.5" r="2.5" transform="matrix(1 0 0 -1 109 36)" fill="#183271"/>
<circle cx="2.5" cy="2.5" r="2.5" transform="matrix(1 0 0 -1 134 49)" fill="#183271"/>
<circle cx="2.5" cy="2.5" r="2.5" transform="matrix(1 0 0 -1 93 32)" fill="#183271"/>
<circle cx="2.5" cy="2.5" r="2.5" transform="matrix(1 0 0 -1 62 29)" fill="#183271"/>
<circle cx="2.5" cy="2.5" r="2.5" transform="matrix(1 0 0 -1 167 33)" fill="#183271"/>
<circle cx="2.5" cy="2.5" r="2.5" transform="matrix(1 0 0 -1 201 67)" fill="#183271"/>
<circle cx="2.5" cy="2.5" r="2.5" transform="matrix(1 0 0 -1 151 27)" fill="#183271"/>
<circle cx="2.5" cy="2.5" r="2.5" transform="matrix(1 0 0 -1 172 51)" fill="#183271"/>
<circle cx="2.5" cy="2.5" r="2.5" transform="matrix(1 0 0 -1 217 82)" fill="#183271"/>
<circle cx="2.5" cy="2.5" r="2.5" transform="matrix(1 0 0 -1 171 70)" fill="#183271"/>
<circle cx="2.5" cy="2.5" r="2.5" transform="matrix(1 0 0 -1 183 61)" fill="#183271"/>
<circle cx="2.5" cy="2.5" r="2.5" transform="matrix(1 0 0 -1 237 87)" fill="#183271"/>
<circle cx="2.5" cy="2.5" r="2.5" transform="matrix(1 0 0 -1 234 95)" fill="#183271"/>
<circle cx="2.5" cy="2.5" r="2.5" transform="matrix(1 0 0 -1 222 66)" fill="#183271"/>
<circle cx="2.5" cy="2.5" r="2.5" transform="matrix(1 0 0 -1 201 50)" fill="#183271"/>
<circle cx="2.5" cy="2.5" r="2.5" transform="matrix(1 0 0 -1 186 41)" fill="#183271"/>
</svg>
